<?xml version="1.0" standalone="no"?>
<!DOCTYPE svg PUBLIC "-//W3C//DTD SVG 20010904//EN"
 "http://www.w3.org/TR/2001/REC-SVG-20010904/DTD/svg10.dtd">
<svg version="1.0" xmlns="http://www.w3.org/2000/svg"
 width="1080.000000pt" height="1080.000000pt" viewBox="0 0 1080.000000 1080.000000"
 preserveAspectRatio="xMidYMid meet">
<metadata>
Created by potrace 1.14, written by Peter Selinger 2001-2017
</metadata>
<g transform="translate(0.000000,1080.000000) scale(0.100000,-0.100000)"
fill="#000000" stroke="none">
<path d="M5050 10779 c-1927 -120 -3655 -1280 -4501 -3024 -366 -755 -539
-1513 -539 -2365 1 -783 156 -1509 472 -2210 354 -782 896 -1475 1575 -2013
1283 -1016 2962 -1390 4573 -1017 611 141 1199 394 1730 745 642 424 1176 966
1587 1610 790 1239 1037 2759 682 4195 -356 1434 -1276 2647 -2574 3391 -143
82 -477 243 -635 307 -743 300 -1561 431 -2370 381z"/>
</g>
</svg>
