{
  "accessors": [
    {
      "name": "Body3_1_0_positions",
      "componentType": 5126,
      "count": 557,
      "min": [
        -1.8968780040740967,
        0,
        -1.8868050575256348
      ],
      "max": [
        10.2999849319458,
        3.5,
        1.899999976158142
      ],
      "type": "VEC3",
      "bufferView": 0,
      "byteOffset": 0
    },
    {
      "name": "Body3_1_0_normals",
      "componentType": 5126,
      "count": 557,
      "min": [
        -0.9999633431434631,
        -1,
        -1
      ],
      "max": [
        1,
        1,
        1
      ],
      "type": "VEC3",
      "bufferView": 1,
      "byteOffset": 0
    },
    {
      "name": "Body3_1_0_texcoords",
      "componentType": 5126,
      "count": 557,
      "min": [
        -10.29687786102295,
        -9.425994873046875
      ],
      "max": [
        10.29687786102295,
        6.9690260887146
      ],
      "type": "VEC2",
      "bufferView": 2,
      "byteOffset": 0
    },
    {
      "name": "Body3_1_0_indices",
      "componentType": 5123,
      "count": 1866,
      "min": [
        0
      ],
      "max": [
        556
      ],
      "type": "SCALAR",
      "bufferView": 3,
      "byteOffset": 0
    }
  ],
  "asset": {
    "generator": "obj2gltf",
    "version": "2.0"
  },
  "buffers": [
    {
      "name": "latch",
      "byteLength": 21556,
      "uri": "data:application/octet-stream;base64,"
    }
  ],
  "bufferViews": [
    {
      "name": "bufferView_0",
      "buffer": 0,
      "byteLength": 6684,
      "byteOffset": 0,
      "byteStride": 12,
      "target": 34962
    },
    {
      "name": "bufferView_1",
      "buffer": 0,
      "byteLength": 6684,
      "byteOffset": 6684,
      "byteStride": 12,
      "target": 34962
    },
    {
      "name": "bufferView_2",
      "buffer": 0,
      "byteLength": 4456,
      "byteOffset": 13368,
      "byteStride": 8,
      "target": 34962
    },
    {
      "name": "bufferView_3",
      "buffer": 0,
      "byteLength": 3732,
      "byteOffset": 17824,
      "target": 34963
    }
  ],
  "materials": [
    {
      "name": "EPX_150_-_Air_Baked_(with_Carbon_M2_M3_L1_3D_Printers)",
      "pbrMetallicRoughness": {
        "baseColorFactor": [
          0.247059,
          0.247059,
          0.247059,
          1
        ],
        "metallicFactor": 0,
        "roughnessFactor": 1
      },
      "emissiveFactor": [
        0,
        0,
        0
      ],
      "alphaMode": "OPAQUE",
      "doubleSided": false
    }
  ],
  "meshes": [
    {
      "name": "Body3_1",
      "primitives": [
        {
          "attributes": {
            "POSITION": 0,
            "NORMAL": 1,
            "TEXCOORD_0": 2
          },
          "indices": 3,
          "material": 0,
          "mode": 4
        }
      ]
    }
  ],
  "nodes": [
    {
      "name": "Body3",
      "mesh": 0
    }
  ],
  "scene": 0,
  "scenes": [
    {
      "nodes": [
        0
      ]
    }
  ]
}
